<?xml version="1.0" standalone="no"?>
<!DOCTYPE svg PUBLIC "-//W3C//DTD SVG 20010904//EN"
 "http://www.w3.org/TR/2001/REC-SVG-20010904/DTD/svg10.dtd">
<svg version="1.0" xmlns="http://www.w3.org/2000/svg"
 width="640.000000pt" height="1280.000000pt" viewBox="0 0 640.000000 1280.000000"
 preserveAspectRatio="xMidYMid meet">
<metadata>
Created by potrace 1.15, written by Peter Selinger 2001-2017
</metadata>
<g transform="translate(0.000000,1280.000000) scale(0.100000,-0.100000)"
fill="#e91e63" stroke="none">
<path d="M2975 12793 c-912 -79 -1696 -776 -1999 -1777 -164 -540 -168 -1182
-11 -1727 145 -502 431 -966 784 -1273 246 -213 476 -348 752 -440 125 -41
310 -86 358 -86 18 0 21 -6 21 -48 0 -86 -44 -202 -115 -300 -69 -97 -55 -132
53 -132 37 0 84 4 105 9 35 8 37 8 37 -15 0 -51 -32 -231 -94 -534 -92 -448
-100 -510 -100 -740 0 -163 3 -211 21 -290 56 -252 139 -399 319 -570 150
-143 288 -238 649 -450 344 -201 494 -308 641 -458 96 -97 156 -187 247 -367
110 -218 156 -367 188 -610 15 -110 15 -495 0 -665 -37 -420 -38 -575 -7 -765
43 -255 144 -476 302 -655 125 -141 259 -383 310 -555 18 -63 28 -126 32 -209
6 -97 10 -121 24 -130 14 -8 22 -7 35 7 24 24 23 171 -2 282 -47 213 -192 489
-349 665 -147 165 -243 381 -280 633 -20 133 -20 395 0 587 21 208 29 609 15
753 -27 271 -79 455 -198 692 -94 186 -153 275 -257 383 -152 159 -299 264
-671 482 -366 214 -505 312 -644 451 -155 155 -209 249 -268 464 -19 72 -25
124 -30 256 -9 251 2 329 126 939 27 135 54 285 61 335 6 49 13 91 15 94 2 2
35 -11 72 -29 84 -39 162 -50 186 -25 26 26 21 55 -22 118 -53 78 -73 149 -72
265 0 52 3 98 8 102 4 5 57 13 117 20 499 52 950 277 1316 656 203 210 344
412 475 679 150 307 231 581 281 950 25 180 24 560 0 740 -73 541 -252 993
-546 1384 -470 624 -1181 965 -1885 904z"/>
</g>
</svg>
